<?xml version="1.0" encoding="utf-8"?>
<!-- Generator: Adobe Illustrator 15.0.0, SVG Export Plug-In . SVG Version: 6.00 Build 0)  -->
<!DOCTYPE svg PUBLIC "-//W3C//DTD SVG 1.1//EN" "http://www.w3.org/Graphics/SVG/1.1/DTD/svg11.dtd">
<svg version="1.1" id="Layer_1" xmlns="http://www.w3.org/2000/svg" xmlns:xlink="http://www.w3.org/1999/xlink" x="0px" y="0px"
	 width="57.028px" height="61.432px" viewBox="0 0 57.028 61.432" enable-background="new 0 0 57.028 61.432" xml:space="preserve">
<polygon fill="#E45620" points="32.155,18.834 32.155,0 3.506,0 0.001,3.476 0.001,5.611 19.483,5.611 19.483,7.348 0.001,7.348 
	0.001,11.488 19.483,11.488 19.483,13.424 0.001,13.424 0.001,18.834 "/>
<polygon fill="#E45620" points="18.835,20.617 0,20.617 0,49.269 3.474,52.771 5.612,52.773 5.612,33.292 7.348,33.292 
	7.348,52.773 11.488,52.773 11.488,33.292 13.423,33.292 13.423,52.773 18.835,52.773 "/>
<polygon fill="#E45620" points="20.863,33.939 20.863,52.774 49.513,52.774 53.02,49.299 53.02,47.161 33.536,47.161 33.536,45.427 
	53.02,45.427 53.02,41.283 33.539,41.283 33.539,39.35 53.02,39.35 53.02,33.939 "/>
<polygon fill="#E45620" points="34.186,32.156 53.021,32.156 53.021,3.506 49.545,0.002 47.41,0.002 47.41,19.481 45.672,19.481 
	45.672,0.002 41.532,0.002 41.532,19.481 39.595,19.481 39.595,0.002 34.186,0.002 "/>
<text transform="matrix(1 0 0 1 53.0205 59.04)" fill="#F37021" font-family="'GothamMedium'" font-size="9.5663">®</text>
</svg>
