<?xml version="1.0" encoding="UTF-8" standalone="no"?>
<svg
   xmlns:dc="http://purl.org/dc/elements/1.1/"
   xmlns:cc="http://creativecommons.org/ns#"
   xmlns:rdf="http://www.w3.org/1999/02/22-rdf-syntax-ns#"
   xmlns:svg="http://www.w3.org/2000/svg"
   xmlns="http://www.w3.org/2000/svg"
   version="1.1"
   id="svg2"
   xml:space="preserve"
   width="330.94135"
   height="127.83267"
   viewBox="0 0 330.94135 127.83267"><metadata
     id="metadata8"><rdf:RDF><cc:Work
         rdf:about=""><dc:format>image/svg+xml</dc:format><dc:type
           rdf:resource="http://purl.org/dc/dcmitype/StillImage" /><dc:title></dc:title></cc:Work></rdf:RDF></metadata><defs
     id="defs6" /><g
     id="g10"
     transform="matrix(1.3333333,0,0,-1.3333333,0,127.83267)"><g
   id="g12"
   transform="translate(196.9639,58.9214)" /><g
   id="g16"
   transform="translate(183.6436,57.1382)" /><g
   id="g20"
   transform="translate(185.6719,43.8164)" /><g
   id="g24"
   transform="translate(198.9941,45.5996)" /><path
   d="M 27.099,72.366 H 42.245 V 34.402 H 27.099 Z"
   style="fill:#231f20;fill-opacity:1;fill-rule:nonzero;stroke:none"
   id="path28" /><g
   id="g30"
   transform="translate(72.937,62.4009)"><path
     d="M 0,0 -5.381,-13.453 H 5.58 Z M -8.072,9.965 H 8.07 L 26.605,-28 H 11.259 l -3.088,5.977 H -8.669 L -11.161,-28 h -15.246 z"
     style="fill:#231f20;fill-opacity:1;fill-rule:nonzero;stroke:none"
     id="path32" /><path
     id="path3813"
     style="fill:#231f20;fill-opacity:1;fill-rule:nonzero;stroke:none"
     d="M 0,0 -5.381,-13.453 H 5.58 Z M -8.072,9.965 H 8.07 L 26.605,-28 H 11.259 l -3.088,5.977 H -8.669 L -11.161,-28 h -15.246 z" /></g><g
   id="g34"
   transform="translate(129.4375,62.4009)"><path
     d="M 0,0 -5.38,-13.453 H 5.581 Z M -8.071,9.965 H 8.07 L 26.605,-28 H 11.26 l -3.088,5.977 H -8.669 L -11.16,-28 h -15.247 z"
     style="fill:#231f20;fill-opacity:1;fill-rule:nonzero;stroke:none"
     id="path36" /><path
     id="path3815"
     style="fill:#231f20;fill-opacity:1;fill-rule:nonzero;stroke:none"
     d="M 0,0 -5.38,-13.453 H 5.581 Z M -8.071,9.965 H 8.07 L 26.605,-28 H 11.26 l -3.088,5.977 H -8.669 L -11.16,-28 h -15.247 z" /></g><text
   transform="matrix(1,0,0,-1,26.0352,25.8037)"
   style="font-variant:normal;font-weight:900;font-stretch:normal;font-size:6.79969978px;font-family:'Arial Black';-inkscape-font-specification:Arial-Black;writing-mode:lr-tb;fill:#231f20;fill-opacity:1;fill-rule:nonzero;stroke:none"
   id="text40"><tspan
     x="0 2.6450832 8.3092337 13.5994 18.508783 23.418167 28.327551 33.991699 39.281868 44.19125 49.8554 54.764782 57.029083 62.319252 67.983398 72.892784 78.556931 83.847099 89.137268 91.401566 96.691734 101.22713 105.76254 108.40762 113.69778 119.36193 124.6521"
     y="0"
     id="tspan38">INDEPENDENT AGENCY ALLIANCE</tspan></text>


<path
   id="path3811"
   style="fill:#231f20;fill-opacity:1;fill-rule:nonzero;stroke:none"
   d="M 27.099,72.366 H 42.245 V 34.402 H 27.099 Z" /><text
   id="text3819"
   style="font-variant:normal;font-weight:900;font-stretch:normal;font-size:6.79969978px;font-family:'Arial Black';-inkscape-font-specification:Arial-Black;writing-mode:lr-tb;fill:#231f20;fill-opacity:1;fill-rule:nonzero;stroke:none"
   transform="matrix(1,0,0,-1,26.0352,25.8037)"><tspan
     id="tspan3817"
     y="0"
     x="0 2.6450832 8.3092337 13.5994 18.508783 23.418167 28.327551 33.991699 39.281868 44.19125 49.8554 54.764782 57.029083 62.319252 67.983398 72.892784 78.556931 83.847099 89.137268 91.401566 96.691734 101.22713 105.76254 108.40762 113.69778 119.36193 124.6521">INDEPENDENT AGENCY ALLIANCE</tspan></text>
</g></svg>